<svg width="32" height="32" viewBox="0 0 32 32" fill="none" xmlns="http://www.w3.org/2000/svg">
<path d="M18.977 22.9897C18.4806 23.7312 18.1911 24.623 18.1911 25.5823C18.1911 28.1596 20.2805 30.249 22.8578 30.249C25.4352 30.249 27.5245 28.1596 27.5245 25.5823C27.5245 23.005 25.4352 20.9156 22.8578 20.9156V22.4712M22.8578 25.5823L20.7837 23.5082" stroke="#3897BF" stroke-width="0.5" stroke-linecap="round" stroke-linejoin="round"/>
<g filter="url(#filter0_bdi_1487_2038)">
<mask id="path-2-inside-1_1487_2038" fill="white">
<path fill-rule="evenodd" clip-rule="evenodd" d="M29.3334 15.9998C29.3334 17.9703 28.906 19.8409 28.1388 21.5241C26.9341 19.7967 24.9324 18.6665 22.6667 18.6665C18.9848 18.6665 16.0001 21.6513 16.0001 25.3332C16.0001 26.8066 16.4781 28.1683 17.2874 29.2718C16.8638 29.3124 16.4343 29.3332 16.0001 29.3332C8.63628 29.3332 2.66675 23.3636 2.66675 15.9998C2.66675 8.63604 8.63628 2.6665 16.0001 2.6665C23.3639 2.6665 29.3334 8.63604 29.3334 15.9998ZM19.688 7.99984H12.3689C12.173 7.99984 11.8624 8.00097 11.5559 8.14418C11.2701 8.27774 11.0324 8.49595 10.8746 8.76891C10.7167 9.04182 10.6461 9.3566 10.672 9.67076C10.7 10.0124 10.8607 10.2771 10.9646 10.4483L10.9685 10.4548L15.5077 18.3811C15.6085 18.557 15.7954 18.6658 15.9981 18.6665C16.2008 18.6672 16.3884 18.5597 16.4904 18.3846L21.1145 10.4413L21.1188 10.4338C21.2673 10.1697 21.3334 9.86662 21.3334 9.58849C21.3334 9.29578 21.2605 9.02361 21.1188 8.77158C21.1107 8.75711 21.102 8.74299 21.0926 8.72931C20.9722 8.5532 20.8003 8.31501 20.4761 8.16392C20.2057 8.03785 19.947 7.99984 19.688 7.99984ZM12.3689 9.13459H15.4327V15.9667L11.9496 9.88466L11.9425 9.87252C11.8265 9.6812 11.8069 9.62605 11.8029 9.57777C11.796 9.49362 11.8149 9.40954 11.8569 9.33697C11.8989 9.26446 11.9616 9.2071 12.0363 9.1722C12.0903 9.14696 12.1676 9.13459 12.3689 9.13459ZM16.5675 15.9967V9.13459H19.688C19.8262 9.13459 19.9125 9.15314 19.9967 9.1924C20.0169 9.20182 20.0312 9.21198 20.0498 9.23093C20.0715 9.25311 20.0974 9.28551 20.14 9.34667C20.1806 9.42503 20.1987 9.501 20.1987 9.58849C20.1987 9.69635 20.1714 9.80194 20.1312 9.87501L16.5675 15.9967Z"/>
</mask>
<path fill-rule="evenodd" clip-rule="evenodd" d="M29.3334 15.9998C29.3334 17.9703 28.906 19.8409 28.1388 21.5241C26.9341 19.7967 24.9324 18.6665 22.6667 18.6665C18.9848 18.6665 16.0001 21.6513 16.0001 25.3332C16.0001 26.8066 16.4781 28.1683 17.2874 29.2718C16.8638 29.3124 16.4343 29.3332 16.0001 29.3332C8.63628 29.3332 2.66675 23.3636 2.66675 15.9998C2.66675 8.63604 8.63628 2.6665 16.0001 2.6665C23.3639 2.6665 29.3334 8.63604 29.3334 15.9998ZM19.688 7.99984H12.3689C12.173 7.99984 11.8624 8.00097 11.5559 8.14418C11.2701 8.27774 11.0324 8.49595 10.8746 8.76891C10.7167 9.04182 10.6461 9.3566 10.672 9.67076C10.7 10.0124 10.8607 10.2771 10.9646 10.4483L10.9685 10.4548L15.5077 18.3811C15.6085 18.557 15.7954 18.6658 15.9981 18.6665C16.2008 18.6672 16.3884 18.5597 16.4904 18.3846L21.1145 10.4413L21.1188 10.4338C21.2673 10.1697 21.3334 9.86662 21.3334 9.58849C21.3334 9.29578 21.2605 9.02361 21.1188 8.77158C21.1107 8.75711 21.102 8.74299 21.0926 8.72931C20.9722 8.5532 20.8003 8.31501 20.4761 8.16392C20.2057 8.03785 19.947 7.99984 19.688 7.99984ZM12.3689 9.13459H15.4327V15.9667L11.9496 9.88466L11.9425 9.87252C11.8265 9.6812 11.8069 9.62605 11.8029 9.57777C11.796 9.49362 11.8149 9.40954 11.8569 9.33697C11.8989 9.26446 11.9616 9.2071 12.0363 9.1722C12.0903 9.14696 12.1676 9.13459 12.3689 9.13459ZM16.5675 15.9967V9.13459H19.688C19.8262 9.13459 19.9125 9.15314 19.9967 9.1924C20.0169 9.20182 20.0312 9.21198 20.0498 9.23093C20.0715 9.25311 20.0974 9.28551 20.14 9.34667C20.1806 9.42503 20.1987 9.501 20.1987 9.58849C20.1987 9.69635 20.1714 9.80194 20.1312 9.87501L16.5675 15.9967Z" fill="url(#paint0_linear_1487_2038)" fill-opacity="0.21" shape-rendering="crispEdges"/>
<path d="M28.1388 21.5241L27.7286 21.8101L28.2301 22.5291L28.5937 21.7314L28.1388 21.5241ZM17.2874 29.2718L17.3351 29.7695L18.211 29.6856L17.6906 28.9761L17.2874 29.2718ZM11.5559 8.14418L11.3442 7.69118L11.3442 7.6912L11.5559 8.14418ZM10.8746 8.76891L11.3074 9.01925L11.3074 9.01921L10.8746 8.76891ZM10.672 9.67076L10.1736 9.71171L10.1736 9.71173L10.672 9.67076ZM10.9646 10.4483L11.3923 10.1894L11.392 10.1889L10.9646 10.4483ZM10.9685 10.4548L11.4025 10.2062L11.3962 10.1959L10.9685 10.4548ZM15.5077 18.3811L15.0738 18.6296L15.0739 18.6297L15.5077 18.3811ZM15.9981 18.6665L15.9999 18.1665H15.9999L15.9981 18.6665ZM16.4904 18.3846L16.0583 18.133L16.0583 18.133L16.4904 18.3846ZM21.1145 10.4413L21.5466 10.6929L21.5486 10.6894L21.1145 10.4413ZM21.1188 10.4338L21.553 10.6818L21.5547 10.6787L21.1188 10.4338ZM21.1188 8.77158L20.6827 9.01615L20.6829 9.01652L21.1188 8.77158ZM21.0926 8.72931L20.6798 9.01149L20.6808 9.01294L21.0926 8.72931ZM20.4761 8.16392L20.2648 8.61709L20.2649 8.61712L20.4761 8.16392ZM15.4327 9.13459H15.9327V8.63459H15.4327V9.13459ZM15.4327 15.9667L14.9988 16.2152L15.9327 17.8459V15.9667H15.4327ZM11.9496 9.88466L12.3835 9.63616L12.3805 9.63098L11.9496 9.88466ZM11.9425 9.87252L12.3734 9.61881L12.3701 9.61333L11.9425 9.87252ZM11.8029 9.57777L12.3012 9.53678L12.3012 9.53677L11.8029 9.57777ZM11.8569 9.33697L11.4242 9.08643L11.4239 9.08683L11.8569 9.33697ZM12.0363 9.1722L12.248 9.62518L12.248 9.62516L12.0363 9.1722ZM16.5675 9.13459V8.63459H16.0675V9.13459H16.5675ZM16.5675 15.9967H16.0675V17.8494L16.9996 16.2483L16.5675 15.9967ZM19.9967 9.1924L20.208 8.73925L20.2079 8.7392L19.9967 9.1924ZM20.0498 9.23093L20.4075 8.88152L20.4066 8.88059L20.0498 9.23093ZM20.14 9.34667L20.584 9.11679L20.569 9.08786L20.5504 9.06112L20.14 9.34667ZM20.1312 9.87501L20.5634 10.1266L20.5692 10.1161L20.1312 9.87501ZM28.5937 21.7314C29.39 19.9845 29.8334 18.0433 29.8334 15.9998H28.8334C28.8334 17.8973 28.4219 19.6974 27.6838 21.3167L28.5937 21.7314ZM22.6667 19.1665C24.7621 19.1665 26.6135 20.211 27.7286 21.8101L28.5489 21.238C27.2547 19.3824 25.1028 18.1665 22.6667 18.1665V19.1665ZM16.5001 25.3332C16.5001 21.9274 19.261 19.1665 22.6667 19.1665V18.1665C18.7087 18.1665 15.5001 21.3751 15.5001 25.3332H16.5001ZM17.6906 28.9761C16.942 27.9555 16.5001 26.6967 16.5001 25.3332H15.5001C15.5001 26.9165 16.0141 28.3812 16.8842 29.5675L17.6906 28.9761ZM16.0001 29.8332C16.4503 29.8332 16.8956 29.8116 17.3351 29.7695L17.2397 28.7741C16.8319 28.8132 16.4184 28.8332 16.0001 28.8332V29.8332ZM2.16675 15.9998C2.16675 23.6398 8.36014 29.8332 16.0001 29.8332V28.8332C8.91243 28.8332 3.16675 23.0875 3.16675 15.9998H2.16675ZM16.0001 2.1665C8.36014 2.1665 2.16675 8.3599 2.16675 15.9998H3.16675C3.16675 8.91218 8.91243 3.1665 16.0001 3.1665V2.1665ZM29.8334 15.9998C29.8334 8.3599 23.64 2.1665 16.0001 2.1665V3.1665C23.0877 3.1665 28.8334 8.91218 28.8334 15.9998H29.8334ZM12.3689 8.49984H19.688V7.49984H12.3689V8.49984ZM11.7675 8.59717C11.9635 8.50561 12.1725 8.49984 12.3689 8.49984V7.49984C12.1735 7.49984 11.7612 7.49634 11.3442 7.69118L11.7675 8.59717ZM11.3074 9.01921C11.4142 8.83459 11.5748 8.68725 11.7676 8.59715L11.3442 7.6912C10.9654 7.86822 10.6507 8.15731 10.4417 8.51862L11.3074 9.01921ZM11.1703 9.62981C11.1528 9.41694 11.2006 9.20381 11.3074 9.01925L10.4417 8.51858C10.2328 8.87983 10.1395 9.29626 10.1736 9.71171L11.1703 9.62981ZM11.392 10.1889C11.2872 10.0161 11.1877 9.84179 11.1703 9.62979L10.1736 9.71173C10.2124 10.183 10.4342 10.5381 10.5371 10.7077L11.392 10.1889ZM11.3962 10.1959L11.3923 10.1894L10.5368 10.7072L10.5407 10.7136L11.3962 10.1959ZM15.9416 18.1326L11.4024 10.2063L10.5346 10.7032L15.0738 18.6296L15.9416 18.1326ZM15.9999 18.1665C15.9757 18.1664 15.9535 18.1535 15.9416 18.1326L15.0739 18.6297C15.2634 18.9605 15.615 19.1651 15.9963 19.1665L15.9999 18.1665ZM16.0583 18.133C16.0462 18.1539 16.0238 18.1666 15.9999 18.1665L15.9963 19.1665C16.3777 19.1679 16.7307 18.9656 16.9225 18.6361L16.0583 18.133ZM20.6824 10.1898L16.0583 18.133L16.9225 18.6361L21.5466 10.6929L20.6824 10.1898ZM20.6847 10.1857L20.6804 10.1933L21.5486 10.6894L21.553 10.6818L20.6847 10.1857ZM20.8334 9.58849C20.8334 9.79234 20.784 10.0089 20.6829 10.1888L21.5547 10.6787C21.7505 10.3304 21.8334 9.94089 21.8334 9.58849H20.8334ZM20.6829 9.01652C20.7833 9.19506 20.8334 9.38306 20.8334 9.58849H21.8334C21.8334 9.2085 21.7376 8.85216 21.5547 8.52665L20.6829 9.01652ZM20.6808 9.01294C20.6809 9.01307 20.6816 9.01408 20.6827 9.01615L21.5549 8.52701C21.5399 8.50015 21.5231 8.4729 21.5043 8.44568L20.6808 9.01294ZM20.2649 8.61712C20.4602 8.70812 20.5685 8.84869 20.6798 9.01149L21.5053 8.44713C21.3758 8.25771 21.1405 7.92191 20.6873 7.71072L20.2649 8.61712ZM19.688 8.49984C19.8938 8.49984 20.0765 8.52929 20.2648 8.61709L20.6874 7.71075C20.3349 7.54642 20.0001 7.49984 19.688 7.49984V8.49984ZM15.4327 8.63459H12.3689V9.63459H15.4327V8.63459ZM15.9327 15.9667V9.13459H14.9327V15.9667H15.9327ZM11.5157 10.1331L14.9988 16.2152L15.8666 15.7182L12.3835 9.63618L11.5157 10.1331ZM11.5116 10.1262L11.5188 10.1383L12.3805 9.63098L12.3733 9.61883L11.5116 10.1262ZM11.3046 9.61875C11.3197 9.80294 11.4087 9.95645 11.5149 10.1317L12.3701 9.61333C12.3431 9.56886 12.3236 9.5354 12.3095 9.50999C12.2952 9.48423 12.2885 9.47031 12.2858 9.46443C12.2833 9.45886 12.2869 9.46591 12.2914 9.48172C12.2966 9.50036 12.2998 9.51976 12.3012 9.53678L11.3046 9.61875ZM11.4239 9.08683C11.331 9.24762 11.2893 9.43329 11.3046 9.61876L12.3012 9.53677C12.3026 9.55395 12.2988 9.57145 12.2898 9.58712L11.4239 9.08683ZM11.8246 8.71923C11.6568 8.79763 11.5171 8.92587 11.4242 9.08643L12.2896 9.58751C12.2806 9.60305 12.2664 9.61657 12.248 9.62518L11.8246 8.71923ZM12.3689 8.63459C12.1753 8.63459 11.9918 8.64108 11.8245 8.71925L12.248 9.62516C12.2141 9.64103 12.1923 9.64214 12.2079 9.64025C12.2288 9.63769 12.2746 9.63459 12.3689 9.63459V8.63459ZM16.0675 9.13459V15.9967H17.0675V9.13459H16.0675ZM19.688 8.63459H16.5675V9.63459H19.688V8.63459ZM20.2079 8.7392C20.0418 8.66179 19.8796 8.63459 19.688 8.63459V9.63459C19.7354 9.63459 19.7582 9.63784 19.7677 9.63968C19.7743 9.64096 19.778 9.64211 19.7855 9.64561L20.2079 8.7392ZM20.4066 8.88059C20.351 8.82396 20.2885 8.77677 20.208 8.73925L19.7854 9.64556C19.7725 9.63955 19.7529 9.62911 19.7311 9.61343C19.7106 9.59858 19.6974 9.58565 19.6931 9.58127L20.4066 8.88059ZM20.5504 9.06112C20.5036 8.99386 20.4588 8.93403 20.4075 8.88152L19.6922 9.58034C19.6874 9.57538 19.6873 9.57459 19.6935 9.58258C19.7002 9.59106 19.7114 9.60616 19.7296 9.63223L20.5504 9.06112ZM20.6987 9.58849C20.6987 9.42227 20.6619 9.26731 20.584 9.11679L19.696 9.57656C19.6979 9.58026 19.6986 9.58219 19.6988 9.58258C19.6989 9.58291 19.6987 9.58247 19.6985 9.58156C19.6983 9.58065 19.6983 9.5803 19.6984 9.58089C19.6984 9.58155 19.6987 9.58392 19.6987 9.58849H20.6987ZM20.5692 10.1161C20.6548 9.96061 20.6987 9.77029 20.6987 9.58849H19.6987C19.6987 9.60133 19.6969 9.61531 19.694 9.62742C19.6926 9.63314 19.6913 9.63699 19.6906 9.63879C19.6899 9.64076 19.6904 9.63893 19.6932 9.6339L20.5692 10.1161ZM16.9996 16.2483L20.5633 10.1266L19.6991 9.62346L16.1353 15.7452L16.9996 16.2483Z" fill="url(#paint1_linear_1487_2038)" mask="url(#path-2-inside-1_1487_2038)"/>
</g>
<defs>
<filter id="filter0_bdi_1487_2038" x="-7.33325" y="-4.3335" width="46.6667" height="47.6665" filterUnits="userSpaceOnUse" color-interpolation-filters="sRGB">
<feFlood flood-opacity="0" result="BackgroundImageFix"/>
<feGaussianBlur in="BackgroundImageFix" stdDeviation="3.5"/>
<feComposite in2="SourceAlpha" operator="in" result="effect1_backgroundBlur_1487_2038"/>
<feColorMatrix in="SourceAlpha" type="matrix" values="0 0 0 0 0 0 0 0 0 0 0 0 0 0 0 0 0 0 127 0" result="hardAlpha"/>
<feOffset dy="4"/>
<feGaussianBlur stdDeviation="5"/>
<feComposite in2="hardAlpha" operator="out"/>
<feColorMatrix type="matrix" values="0 0 0 0 0 0 0 0 0 0 0 0 0 0 0 0 0 0 0.21 0"/>
<feBlend mode="normal" in2="effect1_backgroundBlur_1487_2038" result="effect2_dropShadow_1487_2038"/>
<feBlend mode="normal" in="SourceGraphic" in2="effect2_dropShadow_1487_2038" result="shape"/>
<feColorMatrix in="SourceAlpha" type="matrix" values="0 0 0 0 0 0 0 0 0 0 0 0 0 0 0 0 0 0 127 0" result="hardAlpha"/>
<feOffset dy="-3"/>
<feGaussianBlur stdDeviation="4.5"/>
<feComposite in2="hardAlpha" operator="arithmetic" k2="-1" k3="1"/>
<feColorMatrix type="matrix" values="0 0 0 0 0.0431373 0 0 0 0 0.772549 0 0 0 0 1 0 0 0 0.55 0"/>
<feBlend mode="normal" in2="shape" result="effect3_innerShadow_1487_2038"/>
</filter>
<linearGradient id="paint0_linear_1487_2038" x1="12.3965" y1="2.6665" x2="18.0012" y2="34.1839" gradientUnits="userSpaceOnUse">
<stop stop-color="#222738"/>
<stop offset="1" stop-color="#051233"/>
</linearGradient>
<linearGradient id="paint1_linear_1487_2038" x1="16.0001" y1="2.6665" x2="16.0001" y2="29.3332" gradientUnits="userSpaceOnUse">
<stop stop-color="#0BC5FF" stop-opacity="0"/>
<stop offset="1" stop-color="#0BC5FF"/>
</linearGradient>
</defs>
</svg>
