<svg width="32" height="32" viewBox="0 0 32 32" fill="none" xmlns="http://www.w3.org/2000/svg">
<g filter="url(#filter0_bdi_1694_9331)">
<mask id="path-1-inside-1_1694_9331" fill="white">
<path fill-rule="evenodd" clip-rule="evenodd" d="M16.0001 29.3332C23.3639 29.3332 29.3334 23.3636 29.3334 15.9998C29.3334 8.63604 23.3639 2.6665 16.0001 2.6665C8.63628 2.6665 2.66675 8.63604 2.66675 15.9998C2.66675 23.3636 8.63628 29.3332 16.0001 29.3332ZM19.688 11.9998H12.3689C12.173 11.9998 11.8624 12.001 11.5559 12.1442C11.2701 12.2777 11.0324 12.4959 10.8746 12.7689C10.7167 13.0418 10.6461 13.3566 10.672 13.6708C10.7 14.0124 10.8607 14.2771 10.9646 14.4483L10.9685 14.4548L15.5077 22.3811C15.6085 22.557 15.7954 22.6658 15.9981 22.6665C16.2008 22.6672 16.3884 22.5597 16.4904 22.3846L21.1145 14.4413L21.1188 14.4338C21.2673 14.1697 21.3334 13.8666 21.3334 13.5885C21.3334 13.2958 21.2605 13.0236 21.1188 12.7716C21.1107 12.7571 21.102 12.743 21.0926 12.7293C20.9722 12.5532 20.8003 12.315 20.4761 12.1639C20.2057 12.0379 19.947 11.9998 19.688 11.9998ZM12.3689 13.1346H15.4327V19.9667L11.9496 13.8847L11.9425 13.8725C11.8265 13.6812 11.8069 13.626 11.8029 13.5778C11.796 13.4936 11.8149 13.4095 11.8569 13.337C11.8989 13.2645 11.9616 13.2071 12.0363 13.1722C12.0903 13.147 12.1676 13.1346 12.3689 13.1346ZM16.5675 19.9967V13.1346H19.688C19.8262 13.1346 19.9125 13.1531 19.9967 13.1924C20.0169 13.2018 20.0312 13.212 20.0498 13.2309C20.0715 13.2531 20.0974 13.2855 20.14 13.3467C20.1806 13.425 20.1987 13.501 20.1987 13.5885C20.1987 13.6963 20.1714 13.8019 20.1312 13.875L16.5675 19.9967Z"/>
</mask>
<path fill-rule="evenodd" clip-rule="evenodd" d="M16.0001 29.3332C23.3639 29.3332 29.3334 23.3636 29.3334 15.9998C29.3334 8.63604 23.3639 2.6665 16.0001 2.6665C8.63628 2.6665 2.66675 8.63604 2.66675 15.9998C2.66675 23.3636 8.63628 29.3332 16.0001 29.3332ZM19.688 11.9998H12.3689C12.173 11.9998 11.8624 12.001 11.5559 12.1442C11.2701 12.2777 11.0324 12.4959 10.8746 12.7689C10.7167 13.0418 10.6461 13.3566 10.672 13.6708C10.7 14.0124 10.8607 14.2771 10.9646 14.4483L10.9685 14.4548L15.5077 22.3811C15.6085 22.557 15.7954 22.6658 15.9981 22.6665C16.2008 22.6672 16.3884 22.5597 16.4904 22.3846L21.1145 14.4413L21.1188 14.4338C21.2673 14.1697 21.3334 13.8666 21.3334 13.5885C21.3334 13.2958 21.2605 13.0236 21.1188 12.7716C21.1107 12.7571 21.102 12.743 21.0926 12.7293C20.9722 12.5532 20.8003 12.315 20.4761 12.1639C20.2057 12.0379 19.947 11.9998 19.688 11.9998ZM12.3689 13.1346H15.4327V19.9667L11.9496 13.8847L11.9425 13.8725C11.8265 13.6812 11.8069 13.626 11.8029 13.5778C11.796 13.4936 11.8149 13.4095 11.8569 13.337C11.8989 13.2645 11.9616 13.2071 12.0363 13.1722C12.0903 13.147 12.1676 13.1346 12.3689 13.1346ZM16.5675 19.9967V13.1346H19.688C19.8262 13.1346 19.9125 13.1531 19.9967 13.1924C20.0169 13.2018 20.0312 13.212 20.0498 13.2309C20.0715 13.2531 20.0974 13.2855 20.14 13.3467C20.1806 13.425 20.1987 13.501 20.1987 13.5885C20.1987 13.6963 20.1714 13.8019 20.1312 13.875L16.5675 19.9967Z" fill="url(#paint0_linear_1694_9331)" fill-opacity="0.21" shape-rendering="crispEdges"/>
<path d="M11.5559 12.1442L11.3442 11.6912L11.3442 11.6912L11.5559 12.1442ZM10.8746 12.7689L11.3074 13.0192L11.3074 13.0192L10.8746 12.7689ZM10.672 13.6708L10.1736 13.7117L10.1736 13.7117L10.672 13.6708ZM10.9646 14.4483L11.3923 14.1894L11.392 14.1889L10.9646 14.4483ZM10.9685 14.4548L11.4025 14.2062L11.3962 14.1959L10.9685 14.4548ZM15.5077 22.3811L15.0738 22.6296L15.0739 22.6297L15.5077 22.3811ZM15.9981 22.6665L15.9999 22.1665H15.9999L15.9981 22.6665ZM16.4904 22.3846L16.0583 22.133L16.0583 22.133L16.4904 22.3846ZM21.1145 14.4413L21.5466 14.6929L21.5486 14.6894L21.1145 14.4413ZM21.1188 14.4338L21.553 14.6818L21.5547 14.6787L21.1188 14.4338ZM21.1188 12.7716L20.6827 13.0162L20.6829 13.0165L21.1188 12.7716ZM21.0926 12.7293L20.6798 13.0115L20.6808 13.0129L21.0926 12.7293ZM20.4761 12.1639L20.2648 12.6171L20.2649 12.6171L20.4761 12.1639ZM15.4327 13.1346H15.9327V12.6346H15.4327V13.1346ZM15.4327 19.9667L14.9988 20.2152L15.9327 21.8459V19.9667H15.4327ZM11.9496 13.8847L12.3835 13.6362L12.3805 13.631L11.9496 13.8847ZM11.9425 13.8725L12.3734 13.6188L12.3701 13.6133L11.9425 13.8725ZM11.8029 13.5778L12.3012 13.5368L12.3012 13.5368L11.8029 13.5778ZM11.8569 13.337L11.4242 13.0864L11.4239 13.0868L11.8569 13.337ZM12.0363 13.1722L12.248 13.6252L12.248 13.6252L12.0363 13.1722ZM16.5675 13.1346V12.6346H16.0675V13.1346H16.5675ZM16.5675 19.9967H16.0675V21.8494L16.9996 20.2483L16.5675 19.9967ZM19.9967 13.1924L20.208 12.7392L20.2079 12.7392L19.9967 13.1924ZM20.0498 13.2309L20.4075 12.8815L20.4066 12.8806L20.0498 13.2309ZM20.14 13.3467L20.584 13.1168L20.569 13.0879L20.5504 13.0611L20.14 13.3467ZM20.1312 13.875L20.5634 14.1266L20.5692 14.1161L20.1312 13.875ZM28.8334 15.9998C28.8334 23.0875 23.0877 28.8332 16.0001 28.8332V29.8332C23.64 29.8332 29.8334 23.6398 29.8334 15.9998H28.8334ZM16.0001 3.1665C23.0877 3.1665 28.8334 8.91218 28.8334 15.9998H29.8334C29.8334 8.3599 23.64 2.1665 16.0001 2.1665V3.1665ZM3.16675 15.9998C3.16675 8.91218 8.91243 3.1665 16.0001 3.1665V2.1665C8.36014 2.1665 2.16675 8.3599 2.16675 15.9998H3.16675ZM16.0001 28.8332C8.91243 28.8332 3.16675 23.0875 3.16675 15.9998H2.16675C2.16675 23.6398 8.36014 29.8332 16.0001 29.8332V28.8332ZM12.3689 12.4998H19.688V11.4998H12.3689V12.4998ZM11.7675 12.5972C11.9635 12.5056 12.1725 12.4998 12.3689 12.4998V11.4998C12.1735 11.4998 11.7612 11.4963 11.3442 11.6912L11.7675 12.5972ZM11.3074 13.0192C11.4142 12.8346 11.5748 12.6873 11.7676 12.5972L11.3442 11.6912C10.9654 11.8682 10.6507 12.1573 10.4417 12.5186L11.3074 13.0192ZM11.1703 13.6298C11.1528 13.4169 11.2006 13.2038 11.3074 13.0192L10.4417 12.5186C10.2328 12.8798 10.1395 13.2963 10.1736 13.7117L11.1703 13.6298ZM11.392 14.1889C11.2872 14.0161 11.1877 13.8418 11.1703 13.6298L10.1736 13.7117C10.2124 14.183 10.4342 14.5381 10.5371 14.7077L11.392 14.1889ZM11.3962 14.1959L11.3923 14.1894L10.5368 14.7072L10.5407 14.7136L11.3962 14.1959ZM15.9416 22.1326L11.4024 14.2063L10.5346 14.7032L15.0738 22.6296L15.9416 22.1326ZM15.9999 22.1665C15.9757 22.1664 15.9535 22.1535 15.9416 22.1326L15.0739 22.6297C15.2634 22.9605 15.615 23.1651 15.9963 23.1665L15.9999 22.1665ZM16.0583 22.133C16.0462 22.1539 16.0238 22.1666 15.9999 22.1665L15.9963 23.1665C16.3777 23.1679 16.7307 22.9656 16.9225 22.6361L16.0583 22.133ZM20.6824 14.1898L16.0583 22.133L16.9225 22.6361L21.5466 14.6929L20.6824 14.1898ZM20.6847 14.1857L20.6804 14.1933L21.5486 14.6894L21.553 14.6818L20.6847 14.1857ZM20.8334 13.5885C20.8334 13.7923 20.784 14.0089 20.6829 14.1888L21.5547 14.6787C21.7505 14.3304 21.8334 13.9409 21.8334 13.5885H20.8334ZM20.6829 13.0165C20.7833 13.1951 20.8334 13.3831 20.8334 13.5885H21.8334C21.8334 13.2085 21.7376 12.8522 21.5547 12.5266L20.6829 13.0165ZM20.6808 13.0129C20.6809 13.0131 20.6816 13.0141 20.6827 13.0162L21.5549 12.527C21.5399 12.5001 21.5231 12.4729 21.5043 12.4457L20.6808 13.0129ZM20.2649 12.6171C20.4602 12.7081 20.5685 12.8487 20.6798 13.0115L21.5053 12.4471C21.3758 12.2577 21.1405 11.9219 20.6873 11.7107L20.2649 12.6171ZM19.688 12.4998C19.8938 12.4998 20.0765 12.5293 20.2648 12.6171L20.6874 11.7108C20.3349 11.5464 20.0001 11.4998 19.688 11.4998V12.4998ZM15.4327 12.6346H12.3689V13.6346H15.4327V12.6346ZM15.9327 19.9667V13.1346H14.9327V19.9667H15.9327ZM11.5157 14.1331L14.9988 20.2152L15.8666 19.7182L12.3835 13.6362L11.5157 14.1331ZM11.5116 14.1262L11.5188 14.1383L12.3805 13.631L12.3734 13.6188L11.5116 14.1262ZM11.3046 13.6187C11.3197 13.8029 11.4087 13.9564 11.5149 14.1317L12.3701 13.6133C12.3431 13.5689 12.3236 13.5354 12.3095 13.51C12.2952 13.4842 12.2885 13.4703 12.2858 13.4644C12.2833 13.4589 12.2869 13.4659 12.2914 13.4817C12.2966 13.5004 12.2998 13.5198 12.3012 13.5368L11.3046 13.6187ZM11.4239 13.0868C11.331 13.2476 11.2893 13.4333 11.3046 13.6188L12.3012 13.5368C12.3026 13.554 12.2988 13.5715 12.2898 13.5871L11.4239 13.0868ZM11.8246 12.7192C11.6568 12.7976 11.5171 12.9259 11.4242 13.0864L12.2896 13.5875C12.2806 13.6031 12.2664 13.6166 12.248 13.6252L11.8246 12.7192ZM12.3689 12.6346C12.1753 12.6346 11.9918 12.6411 11.8245 12.7192L12.248 13.6252C12.2141 13.641 12.1923 13.6421 12.2079 13.6403C12.2288 13.6377 12.2746 13.6346 12.3689 13.6346V12.6346ZM16.0675 13.1346V19.9967H17.0675V13.1346H16.0675ZM19.688 12.6346H16.5675V13.6346H19.688V12.6346ZM20.2079 12.7392C20.0418 12.6618 19.8796 12.6346 19.688 12.6346V13.6346C19.7354 13.6346 19.7582 13.6378 19.7677 13.6397C19.7743 13.641 19.778 13.6421 19.7855 13.6456L20.2079 12.7392ZM20.4066 12.8806C20.351 12.824 20.2885 12.7768 20.208 12.7392L19.7854 13.6456C19.7725 13.6395 19.7529 13.6291 19.7311 13.6134C19.7106 13.5986 19.6974 13.5857 19.6931 13.5813L20.4066 12.8806ZM20.5504 13.0611C20.5036 12.9939 20.4588 12.934 20.4075 12.8815L19.6922 13.5803C19.6873 13.5754 19.6873 13.5746 19.6935 13.5826C19.7002 13.5911 19.7114 13.6062 19.7296 13.6322L20.5504 13.0611ZM20.6987 13.5885C20.6987 13.4223 20.6619 13.2673 20.584 13.1168L19.696 13.5766C19.6979 13.5803 19.6986 13.5822 19.6988 13.5826C19.6989 13.5829 19.6987 13.5825 19.6985 13.5816C19.6983 13.5807 19.6983 13.5803 19.6984 13.5809C19.6984 13.5816 19.6987 13.5839 19.6987 13.5885H20.6987ZM20.5692 14.1161C20.6548 13.9606 20.6987 13.7703 20.6987 13.5885H19.6987C19.6987 13.6013 19.6969 13.6153 19.694 13.6274C19.6926 13.6331 19.6913 13.637 19.6906 13.6388C19.6899 13.6408 19.6904 13.6389 19.6932 13.6339L20.5692 14.1161ZM16.9996 20.2483L20.5633 14.1266L19.6991 13.6235L16.1353 19.7452L16.9996 20.2483Z" fill="url(#paint1_linear_1694_9331)" mask="url(#path-1-inside-1_1694_9331)"/>
</g>
<defs>
<filter id="filter0_bdi_1694_9331" x="-7.33325" y="-4.3335" width="46.6667" height="47.6665" filterUnits="userSpaceOnUse" color-interpolation-filters="sRGB">
<feFlood flood-opacity="0" result="BackgroundImageFix"/>
<feGaussianBlur in="BackgroundImageFix" stdDeviation="3.5"/>
<feComposite in2="SourceAlpha" operator="in" result="effect1_backgroundBlur_1694_9331"/>
<feColorMatrix in="SourceAlpha" type="matrix" values="0 0 0 0 0 0 0 0 0 0 0 0 0 0 0 0 0 0 127 0" result="hardAlpha"/>
<feOffset dy="4"/>
<feGaussianBlur stdDeviation="5"/>
<feComposite in2="hardAlpha" operator="out"/>
<feColorMatrix type="matrix" values="0 0 0 0 0 0 0 0 0 0 0 0 0 0 0 0 0 0 0.21 0"/>
<feBlend mode="normal" in2="effect1_backgroundBlur_1694_9331" result="effect2_dropShadow_1694_9331"/>
<feBlend mode="normal" in="SourceGraphic" in2="effect2_dropShadow_1694_9331" result="shape"/>
<feColorMatrix in="SourceAlpha" type="matrix" values="0 0 0 0 0 0 0 0 0 0 0 0 0 0 0 0 0 0 127 0" result="hardAlpha"/>
<feOffset dy="-3"/>
<feGaussianBlur stdDeviation="4.5"/>
<feComposite in2="hardAlpha" operator="arithmetic" k2="-1" k3="1"/>
<feColorMatrix type="matrix" values="0 0 0 0 0.0431373 0 0 0 0 0.772549 0 0 0 0 1 0 0 0 0.55 0"/>
<feBlend mode="normal" in2="shape" result="effect3_innerShadow_1694_9331"/>
</filter>
<linearGradient id="paint0_linear_1694_9331" x1="26.0763" y1="17.9857" x2="30.7907" y2="29.9663" gradientUnits="userSpaceOnUse">
<stop stop-color="#222738"/>
<stop offset="1" stop-color="#051233"/>
</linearGradient>
<linearGradient id="paint1_linear_1694_9331" x1="26.7693" y1="17.9857" x2="26.7693" y2="29.3332" gradientUnits="userSpaceOnUse">
<stop stop-color="#0BC5FF" stop-opacity="0"/>
<stop offset="1" stop-color="#0BC5FF"/>
</linearGradient>
</defs>
</svg>
